# xmcd CD database file
#
# Track frame offsets:
#	150
#	12245
#	23705
#	36175
#	47880
#	60725
#	71025
#	82660
#	96870
#	105870
#	119475
#	132600
#
# Disc length: 1968 seconds
#
# Revision: 3
# Processed by: cddbd v1.5.2PL0 Copyright (c) Steve Scherf et al.
# Submitted via: CDex 1.70beta2
#
DISCID=9a07ae0c
DTITLE=Ray Charles - Original Legends Versions
DYEAR=1900
DGENRE=Blues
TTITLE0=I love you, I love you
TTITLE1=Let's have a hall
TTITLE2=Rockin' chair blues
TTITLE3=How long blues
TTITLE4=Dont' put all your dreams in one basquet
TTITLE5=Sittin' on top of the world
TTITLE6=See see rider
TTITLE7=Someday
TTITLE8=All to my self alone
TTITLE9=Baby let me hold  your hand
TTITLE10=Baby wont' you please come home
TTITLE11=I'm wondering and wondering
EXTD=
EXTT0=
EXTT1=
EXTT2=
EXTT3=
EXTT4=
EXTT5=
EXTT6=
EXTT7=
EXTT8=
EXTT9=
EXTT10=
EXTT11=
PLAYORDER=
